<?xml version="1.0" encoding="utf-8"?>
<!-- Generator: Adobe Illustrator 25.3.0, SVG Export Plug-In . SVG Version: 6.00 Build 0)  -->
<svg version="1.1" id="Capa_1" xmlns="http://www.w3.org/2000/svg" xmlns:xlink="http://www.w3.org/1999/xlink" x="0px" y="0px"
	 viewBox="0 0 120.7 69" style="enable-background:new 0 0 120.7 69;" xml:space="preserve">
<style type="text/css">
	.st0{fill:#1C87C2;}
	.st1{fill:#DBA138;}
	.st2{fill:#BF2117;}
</style>
<g id="Capa_x0020_1">
	<path class="st0" d="M13.2,45.8v7.3c0,0.8-0.1,1.5-0.4,2.1c-0.3,0.7-0.7,1.3-1.2,1.8c-0.5,0.5-1.1,0.9-1.8,1.2
		c-1.3,0.6-3,0.6-4.3,0c-0.7-0.3-1.3-0.7-1.8-1.2c-0.5-0.5-0.9-1.1-1.2-1.8c-0.3-0.7-0.4-1.4-0.4-2.1v-7.3H0.2v7.3
		c0,1,0.2,2,0.6,2.9c0.4,0.9,0.9,1.7,1.6,2.3s1.4,1.2,2.3,1.6c0.9,0.4,1.9,0.6,2.9,0.6c1,0,2-0.2,2.8-0.6c0.9-0.4,1.7-0.9,2.3-1.6
		c0.7-0.7,1.2-1.4,1.6-2.3c0.4-0.9,0.6-1.9,0.6-2.9v-7.3C15,45.8,13.2,45.8,13.2,45.8z"/>
	<polygon class="st0" points="33.1,45.3 20.3,58 20.3,45.8 18.5,45.8 18.5,60.5 20.2,60.5 34.3,46.6 	"/>
	<polygon class="st0" points="36.6,60.5 38.4,60.5 38.4,45.8 36.6,45.8 	"/>
	<polygon class="st0" points="36.6,45.1 38.4,45.1 38.4,43.2 36.6,43.2 	"/>
	<path d="M56.5,50.3c-0.4-0.9-0.9-1.7-1.6-2.3c-0.7-0.6-1.5-1.2-2.3-1.5c-0.9-0.4-1.8-0.6-2.8-0.6c-1,0-2,0.2-2.9,0.6
		c-0.9,0.4-1.7,0.9-2.3,1.5c-0.7,0.7-1.2,1.4-1.6,2.3c-0.4,0.9-0.6,1.8-0.6,2.8v7.3H44v-7.3c0-0.8,0.1-1.5,0.4-2.2
		c0.3-0.7,0.7-1.3,1.2-1.8c0.5-0.5,1.1-0.9,1.8-1.2c0.7-0.3,1.4-0.4,2.2-0.4c0.8,0,1.5,0.1,2.2,0.4s1.3,0.7,1.8,1.2
		c0.5,0.5,0.9,1.1,1.2,1.8c0.3,0.7,0.5,1.4,0.5,2.2v0.1h1.6v-0.1C57.1,52.2,56.9,51.2,56.5,50.3z"/>
	<path d="M73.3,53.1L73.3,53.1c0,0.9-0.1,1.6-0.4,2.3c-0.3,0.7-0.7,1.3-1.2,1.8c-0.5,0.5-1.1,0.9-1.8,1.2c-0.7,0.3-1.4,0.4-2.2,0.4
		c-0.8,0-1.5-0.1-2.2-0.4s-1.3-0.7-1.8-1.2c-0.5-0.5-0.9-1.1-1.2-1.8c-0.3-0.7-0.5-1.4-0.5-2.2v-2.8h3.9v-1.6h-3.9v-5h-1.6v9.4
		c0,1,0.2,2,0.6,2.9c0.4,0.9,0.9,1.6,1.6,2.3c0.7,0.6,1.4,1.2,2.3,1.5c0.9,0.4,1.9,0.6,2.9,0.6c1,0,1.9-0.2,2.8-0.6
		c0.9-0.4,1.7-0.9,2.3-1.5c0.7-0.7,1.2-1.4,1.6-2.3c0.4-0.9,0.6-1.8,0.6-2.9v-0.1C74.9,53.1,73.3,53.1,73.3,53.1z"/>
	<path d="M91.1,45.9v7.2c0,0.8-0.1,1.5-0.4,2.2c-0.3,0.7-0.7,1.3-1.2,1.8c-0.5,0.5-1.1,0.9-1.8,1.2c-0.7,0.3-1.4,0.4-2.2,0.4
		c-0.8,0-1.5-0.1-2.2-0.4s-1.3-0.7-1.8-1.2c-0.5-0.5-0.9-1.1-1.2-1.8c-0.3-0.7-0.5-1.4-0.5-2.2v-7.2H78v7.2c0,1,0.2,2,0.6,2.9
		c0.4,0.9,0.9,1.6,1.6,2.3c0.7,0.7,1.4,1.2,2.3,1.5c0.9,0.4,1.9,0.6,2.9,0.6c1,0,2-0.2,2.8-0.6c0.9-0.4,1.7-0.9,2.3-1.5
		c0.7-0.7,1.2-1.4,1.6-2.3c0.4-0.9,0.6-1.8,0.6-2.9v-7.2C92.7,45.9,91.1,45.9,91.1,45.9z"/>
	<path d="M103.2,58.8c-0.8,0-1.5-0.1-2.2-0.4s-1.3-0.7-1.8-1.2c-0.5-0.5-0.9-1.1-1.2-1.8c-0.3-0.7-0.5-1.4-0.5-2.2
		c0-0.8,0.1-1.5,0.5-2.2c0.3-0.7,0.7-1.3,1.2-1.8c0.5-0.5,1.1-0.9,1.8-1.2c0.7-0.3,1.4-0.4,2.2-0.4c0.8,0,1.5,0.1,2.2,0.4
		c0.7,0.3,1.3,0.7,1.8,1.2s0.9,1.1,1.2,1.8c0.3,0.7,0.5,1.4,0.5,2.2c0,0.8-0.1,1.5-0.5,2.2c-0.3,0.7-0.7,1.3-1.2,1.8
		c-0.5,0.5-1.1,0.9-1.8,1.2C104.7,58.6,103.9,58.8,103.2,58.8z M110,50.3c-0.4-0.9-0.9-1.7-1.6-2.3c-0.7-0.6-1.4-1.2-2.3-1.5
		c-0.9-0.4-1.9-0.6-2.9-0.6c-1,0-2,0.2-2.9,0.6c-0.9,0.4-1.7,0.9-2.3,1.5c-0.7,0.7-1.2,1.4-1.6,2.3c-0.4,0.9-0.6,1.8-0.6,2.8
		c0,1,0.2,2,0.6,2.9c0.4,0.9,0.9,1.6,1.6,2.3c0.7,0.6,1.4,1.2,2.3,1.5c0.9,0.4,1.9,0.6,2.9,0.6c1.2,0,2.3-0.3,3.3-0.8
		c0.9-0.5,1.7-1.1,2.4-1.9v2.7h1.6v-7.3C110.5,52.2,110.3,51.2,110,50.3z"/>
	<polygon points="113.6,60.4 115.3,60.4 115.3,43.3 113.6,43.3 	"/>
	<path d="M87.1,13.8l-3.3,3.5c0.3,0.2,0.6,0.5,0.8,0.8l3.3-3.6C87.7,14.3,87.4,14.1,87.1,13.8z"/>
	<path d="M86.3,24.7c-0.1,0.4-0.3,0.9-0.5,1.3l8.4,3.1c0-0.5,0.1-0.9,0.3-1.3C94.5,27.7,86.3,24.7,86.3,24.7z"/>
	<path d="M85.7,26.2c-0.2,0.4-0.5,0.8-0.8,1.1c5.7,3.9,10.9,8.5,15.3,13.4h1.7C97.2,35.2,91.7,30.3,85.7,26.2z"/>
	<path d="M72.7,25.1c-0.1-0.4-0.2-0.9-0.3-1.3c-1.9,0.3-3.8,0.7-5.7,1.2c-13.6,3.2-24.9,8.8-32.1,15.7h1.9
		C45.3,32.8,58.8,27.6,72.7,25.1z"/>
	<path d="M54,1.4c-1,1.2-2.1,2.6-3.3,4c-1,1.2-2.1,2.5-3.2,3.9c-0.8-0.6-1.9-0.8-3-0.4c-1.1,0.4-1.9,1.4-2,2.6
		c-8.1-0.2-15.9,1-23.2,3.7c5.2-4.4,11.1-7.9,17.6-10.3C42.4,2.8,48.2,1.7,54,1.4z M15.6,16.7c-0.1,0-0.1,0.1-0.2,0.2
		c-6.8,6.5-12,14.5-15.3,23.6c0,0.1,0,0.1,0,0.2h1.3c3.2-8.8,8.3-16.6,14.9-22.9c8.5-3.7,17.4-5.3,26.2-5c0,0.1,0,0.1,0.1,0.2
		c0.2,0.5,0.5,1,0.9,1.3c-5.2,7-10.2,15.7-12.1,26.3c0,0,0,0.1,0,0.1h1.3c1.9-10.4,6.8-18.9,12-25.8c0.6,0.2,1.3,0.2,2-0.1
		c0.8-0.3,1.4-0.9,1.8-1.6c8.4,1,16.7,3.5,24.4,7.1c0.2-0.4,0.4-0.8,0.6-1.2c-3.6-1.7-7.2-3.1-11-4.3c-4.6-1.4-9.2-2.4-13.7-3
		c0-0.4-0.1-0.8-0.2-1.2c-0.1-0.2-0.1-0.3-0.2-0.5c1.2-1.4,2.3-2.7,3.3-4c1.6-1.8,2.9-3.5,4.1-4.9C66.4,1.2,77,4,86.3,9.2
		c0.2-0.4,0.4-0.8,0.8-1.2c-1.2-0.7-2.4-1.3-3.6-1.9C75.6,2.4,67.4,0.3,59.1,0h-4.6c-6.2,0.2-12.3,1.5-18.2,3.7
		C28.5,6.6,21.5,11.1,15.6,16.7z"/>
	<path d="M102.7,20.4c-2.6-2.8-5.5-5.4-8.5-7.7c-0.2,0.4-0.4,0.8-0.8,1.2c3.6,2.7,6.9,5.7,9.8,9.2c-5.2-0.8-10.9-1.1-16.8-0.8
		c0,0.2,0,0.4,0,0.7c0,0.2,0,0.4,0,0.7c6.5-0.3,12.7,0,18.1,1c0,0,0,0,0,0c3.9,4.8,7.1,10.2,9.4,16.1h1.4
		C112.5,33.2,108.2,26.3,102.7,20.4L102.7,20.4z"/>
	<path class="st0" d="M86.5,22.9c0,3.9-3.2,7.1-7.1,7.1c-3.9,0-7.1-3.2-7.1-7.1c0-3.9,3.2-7.1,7.1-7.1S86.5,18.9,86.5,22.9z"/>
	<path class="st1" d="M94.6,10.9c0,2.4-1.9,4.3-4.3,4.3c-2.4,0-4.3-1.9-4.3-4.3c0-2.4,1.9-4.3,4.3-4.3S94.6,8.5,94.6,10.9z"/>
	<path class="st2" d="M100.8,29c0,1.8-1.5,3.3-3.3,3.3c-1.8,0-3.3-1.5-3.3-3.3s1.5-3.3,3.3-3.3C99.3,25.7,100.8,27.2,100.8,29z"/>
</g>
</svg>
